<svg xmlns="http://www.w3.org/2000/svg" xml:space="preserve" width="1.70666in" height="1.70666in" version="1.1" style="shape-rendering:geometricPrecision; text-rendering:geometricPrecision; image-rendering:optimizeQuality; fill-rule:evenodd; clip-rule:evenodd" viewBox="0 0 1707 1707" xmlns:xlink="http://www.w3.org/1999/xlink">
 <defs>
  <style type="text/css">
   
    .fil0 {fill:#000002}
   
  </style>
 </defs>
 <g id="Layer_x0020_1">
  <metadata id="CorelCorpID_0Corel-Layer"></metadata>
  <path class="fil0" d="M915 1049c-13,0 -23,-10 -23,-23l0 -65c0,-30 45,-30 45,0l0 65c0,13 -10,23 -22,23zm769 266l-151 0 0 363c0,13 -10,23 -23,23l-1314 0c-12,0 -22,-10 -22,-23l0 -363 -151 0c-13,0 -23,-10 -23,-22l0 -170c0,-27 32,-23 50,-23l0 -319c0,-13 11,-23 23,-23l395 0c12,0 22,10 22,23l0 319 28 0 0 -140c0,-136 110,-246 245,-246l26 0 11 -41c-91,-72 -67,-167 -71,-194 -48,-129 -5,-204 25,-238 49,-55 131,-78 210,-58 50,12 252,0 154,102 -5,5 -12,13 -15,18 21,54 20,118 -3,192l0 32c0,59 -27,112 -71,146l11 41 26 0c135,0 245,111 245,246l0 140 40 0 0 -187c0,-13 10,-23 23,-23l180 0c25,0 22,27 22,40l58 0c12,0 22,10 22,23l0 111c0,13 -10,23 -22,23l-58 0 0 13 108 0c12,0 23,11 23,23l0 170c0,12 -11,22 -23,22zm-1638 -45l150 0 1314 0 151 0 0 -124 -972 0 -643 0 0 124zm173 386l1269 0 0 -341 -1269 0 0 341zm96 -1034c-170,0 -308,-138 -308,-308 0,-170 138,-308 308,-308 170,0 308,138 308,308 0,170 -138,308 -308,308zm-23 -570c-127,11 -228,112 -239,239l60 0c30,0 30,46 0,46l-60 0c11,127 112,228 239,239l0 -60c0,-30 46,-30 46,0l0 60c127,-11 228,-112 239,-239l-60 0c-30,0 -30,-46 0,-46l60 0c-11,-127 -112,-228 -239,-239l0 60c0,30 -46,30 -46,0l0 -60zm24 285l-82 0c-30,0 -30,-46 0,-46l59 0 0 -100c0,-30 46,-30 46,0l0 123c0,13 -10,23 -23,23zm1018 1171l-962 0c-30,0 -30,-45 0,-45l962 0c30,0 30,45 0,45zm-502 -777l83 98 83 -98 -9 -34c-47,21 -101,21 -148,0l-9 34zm-269 369l103 0 0 -225 -62 -36c-26,34 -41,75 -41,121l0 140 0 0zm148 0l407 0 0 -238c0,-8 4,-16 11,-20l64 -37c-53,-44 -99,-46 -160,-46l-101 120c-9,10 -26,10 -35,0l-101 -120c-62,0 -107,3 -160,46l64 37c7,4 11,12 11,20l0 238zm452 0l103 0 0 -140c0,-44 -14,-86 -41,-121l-62 36 0 225zm-408 -704c71,-119 244,-121 317,-3 2,-101 -49,-71 20,-147 -36,-12 -110,-12 -139,-19 -103,-26 -215,36 -198,169zm160 -45c-78,0 -141,63 -141,140 0,67 2,109 66,155 78,55 215,2 215,-119l0 -36c0,-78 -63,-140 -140,-140zm-819 749l349 0 0 -297 -349 0 0 297zm1480 -125l0 67 35 0 0 -67 -35 0zm-180 125l135 0 0 -165 -135 0 0 165zm-1126 -83c-86,0 -85,-130 0,-130 86,0 86,130 0,130zm0 -85c-26,0 -26,40 0,40 26,0 26,-40 0,-40z" id="id_125" style="fill: rgb(59, 130, 246);"></path>
 </g>
</svg>